mtllib group3.mtl
v 221.1889 54.08004 -202.2787
vt 0 1
vn -0.0514827 0.04001163 0.0270199
v 217.4507 47.54954 -200.5026
vn -0.05744711 0.03161233 0.02611443
v 217.3744 50.58632 -205.4834
vn -0.05766374 0.03435042 0.02182692
v 220.1024 49.97821 -198.2748
vn -0.0522964 0.03632985 0.03044177
v 218.4504 43.06298 -194.3645
vn -0.05616874 0.02581888 0.03405777
v 219.493 44.01785 -193.4886
vn -0.05309742 0.02863189 0.03663812
v 215.2994 44.13317 -201.7649
vn -0.06162583 0.02497628 0.02366252
v 214.2797 45.67176 -207.2993
vn -0.06267837 0.02638692 0.01888455
v 217.6046 41.71978 -194.8608
vn -0.05866047 0.02186187 0.03259571
v 213.908 40.14118 -201.9094
vn -0.06432856 0.01722211 0.02338179
v 212.2781 39.92915 -207.5072
vn -0.06592174 0.01708163 0.01854766
v 217.0575 40.15026 -194.9176
vn -0.06027209 0.01723813 0.03242831
v 213.4443 36.05504 -200.9188
vn -0.0652293 0.009285082 0.0253061
v 211.611 34.05111 -206.0821
vn -0.06700265 0.007556903 0.02085691
v 216.8752 38.54372 -194.5281
vn -0.06080919 0.01250535 0.03357576
v 213.9642 32.36761 -198.9124
vn -0.06421941 0.002122518 0.02920335
v 212.3589 28.74663 -203.1958
vn -0.06579075 -0.00103844 0.02553375
v 217.0796 37.09395 -193.7393
vn -0.060207 0.008234385 0.03589965
v 215.405 29.52366 -196.1323
vn -0.06142069 -0.003401664 0.03460347
v 214.4316 24.6555 -199.1966
vn -0.06243218 -0.007667667 0.03201408
v 217.6461 35.9758 -192.6462
vn -0.05853815 0.004940368 0.03911969
v 217.593 27.86619 -192.9138
vn -0.05717072 -0.006621179 0.04085512
v 217.5791 22.27118 -194.5667
vn -0.05733206 -0.01153121 0.0395163
v 218.5063 35.32413 -191.3808
vn -0.05600393 0.003020606 0.0428475
v 220.2642 27.59513 -189.6452
vn -0.0519821 -0.007147689 0.04720428
v 221.4217 21.88126 -189.8646
vn -0.05110554 -0.01216304 0.04713552
v 219.5566 35.21756 -190.0957
vn -0.05291001 0.002706651 0.04663344
v 223.0965 28.74318 -186.7206
vn -0.04648066 -0.004917699 0.05288513
v 225.496 23.53275 -185.6575
vn -0.0445036 -0.009486966 0.05395275
v 220.6701 35.66894 -188.9458
vn -0.04962955 0.004036373 0.05002087
v 225.7481 31.17184 -184.4927
vn -0.04132996 -0.0002001828 0.05721248
v 229.3105 27.02647 -182.4527
vn -0.03832256 -0.003825772 0.05914573
v 221.7127 36.62381 -188.0699
vn -0.04655824 0.006849379 0.05260123
v 227.8994 34.58821 -183.2305
vn -0.03715124 0.006435861 0.05966438
v 232.4052 31.94102 -180.6369
vn -0.03330795 0.00413773 0.0620881
v 222.5585 37.96701 -187.5737
vn -0.04406651 0.01080639 0.05406327
v 229.2908 38.58021 -183.0859
vn -0.03444852 0.01419004 0.0599451
v 234.4068 37.68364 -180.429
vn -0.03006458 0.01344303 0.06242498
v 223.1056 39.53653 -187.5168
vn -0.0424549 0.01543013 0.05423067
v 229.7546 42.66634 -184.0766
vn -0.03354778 0.02212707 0.05802079
v 235.0739 43.56168 -181.8541
vn -0.02898366 0.02296776 0.06011574
v 223.2879 41.14307 -187.9063
vn -0.0419178 0.02016291 0.05308322
v 229.2346 46.35377 -186.083
vn -0.03455767 0.02928963 0.05412354
v 234.326 48.86617 -184.7403
vn -0.03019557 0.0315631 0.0554389
v 223.0835 42.59284 -188.6952
vn -0.04251998 0.02443387 0.05075933
v 227.7938 49.19773 -188.8631
vn -0.03735638 0.03481381 0.04872342
v 232.2533 52.95729 -188.7396
vn -0.03355413 0.03819232 0.04895855
v 222.517 43.71099 -189.7882
vn -0.04418883 0.02772789 0.04753929
v 225.6059 50.85519 -192.0815
vn -0.04160636 0.03803332 0.04247176
v 229.1058 55.3416 -193.3694
vn -0.03865424 0.04205586 0.04145633
v 221.6567 44.36265 -191.0536
vn -0.04672305 0.02964765 0.04381148
v 222.9346 51.12625 -195.3502
vn -0.04679497 0.03855984 0.03612262
v 225.2632 55.73153 -198.0715
vn -0.04488077 0.04268769 0.03383712
v 220.6065 44.46922 -192.3387
vn -0.04981697 0.02996161 0.04002554
v 219.6066 39.99445 -190.8165
vn -0.05242131 0.01667053 0.04422186
o pikapika01a_0
g polygon_0
usemtl robo_pika1
f 3/1/3 2/1/2 1/1/1
f 1/1/1 2/1/2 4/1/4
f 2/1/2 5/1/5 4/1/4
f 4/1/4 5/1/5 6/1/6
f 8/1/8 7/1/7 3/1/3
f 3/1/3 7/1/7 2/1/2
f 7/1/7 9/1/9 2/1/2
f 2/1/2 9/1/9 5/1/5
f 11/1/11 10/1/10 8/1/8
f 8/1/8 10/1/10 7/1/7
f 10/1/10 12/1/12 7/1/7
f 7/1/7 12/1/12 9/1/9
f 14/1/14 13/1/13 11/1/11
f 11/1/11 13/1/13 10/1/10
f 13/1/13 15/1/15 10/1/10
f 10/1/10 15/1/15 12/1/12
f 17/1/17 16/1/16 14/1/14
f 14/1/14 16/1/16 13/1/13
f 16/1/16 18/1/18 13/1/13
f 13/1/13 18/1/18 15/1/15
f 20/1/20 19/1/19 17/1/17
f 17/1/17 19/1/19 16/1/16
f 19/1/19 21/1/21 16/1/16
f 16/1/16 21/1/21 18/1/18
f 23/1/23 22/1/22 20/1/20
f 20/1/20 22/1/22 19/1/19
f 22/1/22 24/1/24 19/1/19
f 19/1/19 24/1/24 21/1/21
f 26/1/26 25/1/25 23/1/23
f 23/1/23 25/1/25 22/1/22
f 25/1/25 27/1/27 22/1/22
f 22/1/22 27/1/27 24/1/24
f 29/1/29 28/1/28 26/1/26
f 26/1/26 28/1/28 25/1/25
f 28/1/28 30/1/30 25/1/25
f 25/1/25 30/1/30 27/1/27
f 32/1/32 31/1/31 29/1/29
f 29/1/29 31/1/31 28/1/28
f 31/1/31 33/1/33 28/1/28
f 28/1/28 33/1/33 30/1/30
f 35/1/35 34/1/34 32/1/32
f 32/1/32 34/1/34 31/1/31
f 34/1/34 36/1/36 31/1/31
f 31/1/31 36/1/36 33/1/33
f 38/1/38 37/1/37 35/1/35
f 35/1/35 37/1/37 34/1/34
f 37/1/37 39/1/39 34/1/34
f 34/1/34 39/1/39 36/1/36
f 41/1/41 40/1/40 38/1/38
f 38/1/38 40/1/40 37/1/37
f 40/1/40 42/1/42 37/1/37
f 37/1/37 42/1/42 39/1/39
f 44/1/44 43/1/43 41/1/41
f 41/1/41 43/1/43 40/1/40
f 43/1/43 45/1/45 40/1/40
f 40/1/40 45/1/45 42/1/42
f 47/1/47 46/1/46 44/1/44
f 44/1/44 46/1/46 43/1/43
f 46/1/46 48/1/48 43/1/43
f 43/1/43 48/1/48 45/1/45
f 50/1/50 49/1/49 47/1/47
f 47/1/47 49/1/49 46/1/46
f 49/1/49 51/1/51 46/1/46
f 46/1/46 51/1/51 48/1/48
f 53/1/53 52/1/52 50/1/50
f 50/1/50 52/1/52 49/1/49
f 52/1/52 54/1/54 49/1/49
f 49/1/49 54/1/54 51/1/51
f 1/1/1 4/1/4 53/1/53
f 53/1/53 4/1/4 52/1/52
f 4/1/4 6/1/6 52/1/52
f 52/1/52 6/1/6 54/1/54
f 6/1/6 5/1/5 55/1/55
f 5/1/5 9/1/9 55/1/55
f 9/1/9 12/1/12 55/1/55
f 12/1/12 15/1/15 55/1/55
f 15/1/15 18/1/18 55/1/55
f 18/1/18 21/1/21 55/1/55
f 21/1/21 24/1/24 55/1/55
f 24/1/24 27/1/27 55/1/55
f 27/1/27 30/1/30 55/1/55
f 30/1/30 33/1/33 55/1/55
f 33/1/33 36/1/36 55/1/55
f 36/1/36 39/1/39 55/1/55
f 39/1/39 42/1/42 55/1/55
f 42/1/42 45/1/45 55/1/55
f 45/1/45 48/1/48 55/1/55
f 48/1/48 51/1/51 55/1/55
f 51/1/51 54/1/54 55/1/55
f 54/1/54 6/1/6 55/1/55
v 218.3598 42.13062 -191.0472
vn -0.153915 0.09586196 0.1044744
v 217.9183 44.14172 -194.6444
vn -0.1662915 0.1025776 0.07496162
v 219.2418 45.14606 -193.4397
vn -0.1494752 0.1153387 0.0902686
v 217.8619 41.75277 -191.5004
vn -0.1655001 0.08707058 0.09392914
v 216.7885 42.60956 -195.411
vn -0.1806467 0.08311027 0.06522058
v 217.4369 41.17635 -191.7888
vn -0.1753897 0.07365912 0.08721834
v 215.9887 40.73439 -195.6472
vn -0.1908093 0.05928476 0.0622204
v 217.136 40.47089 -191.8777
vn -0.182391 0.05724522 0.08515146
v 215.6153 38.74239 -195.3243
vn -0.1955537 0.03397476 0.06632295
v 216.9955 39.72147 -191.7562
vn -0.1856595 0.03980862 0.08797779
v 215.7133 36.87382 -194.4813
vn -0.1943075 0.01023302 0.07703337
v 217.0324 39.01848 -191.4391
vn -0.184801 0.02345244 0.09535643
v 216.2711 35.35406 -193.22
vn -0.1872211 -0.009076834 0.09305986
v 217.2422 38.44673 -190.9645
vn -0.179919 0.01014947 0.1063974
v 217.2212 34.36641 -191.6924
vn -0.1751491 -0.02162575 0.1124694
v 217.5997 38.07516 -190.3898
vn -0.1716024 0.001504249 0.119769
v 218.4491 34.02999 -190.0827
vn -0.1595478 -0.02590016 0.1329208
v 218.0616 37.9486 -189.7843
vn -0.1608542 -0.001440479 0.1338585
v 219.8066 34.3854 -188.5853
vn -0.1422987 -0.02138448 0.1519475
v 218.5723 38.0823 -189.2209
vn -0.148971 0.001670462 0.1469664
v 221.1302 35.38974 -187.3806
vn -0.1254824 -0.008623406 0.1672545
v 219.0703 38.46015 -188.7677
vn -0.1373859 0.01046184 0.1575117
v 222.26 36.9219 -186.6139
vn -0.1111272 0.01084391 0.1769955
v 219.4953 39.03657 -188.4792
vn -0.1274963 0.02387329 0.1642225
v 223.0598 38.79707 -186.3778
vn -0.1009646 0.03466945 0.1799957
v 219.7962 39.74203 -188.3904
vn -0.120495 0.04028721 0.1662894
v 223.4332 40.78907 -186.7007
vn -0.09622019 0.05997945 0.1758931
v 219.9367 40.49146 -188.5119
vn -0.1172265 0.05772381 0.163463
v 223.3351 42.65764 -187.5436
vn -0.09746637 0.08372119 0.1651827
v 219.8998 41.19444 -188.829
vn -0.118085 0.07407999 0.1560844
v 222.7774 44.1774 -188.805
vn -0.1045528 0.103031 0.1491562
v 219.69 41.76619 -189.3036
vn -0.122967 0.08738296 0.1450434
v 221.8273 45.16505 -190.3326
vn -0.1166247 0.11558 0.1297467
v 219.3325 42.13776 -189.8783
vn -0.1312836 0.09602818 0.1316718
v 220.5994 45.50146 -191.9422
vn -0.1322261 0.1198544 0.1092953
v 218.8706 42.26432 -190.4838
vn -0.1420318 0.0989729 0.1175823
v 218.2444 40.17786 -189.95
vn -0.1562924 0.05032777 0.1297461
o pikapika01b_0
g polygon_0
usemtl robo_pika1
f 58/1/58 57/1/57 56/1/56
f 56/1/56 57/1/57 59/1/59
f 57/1/57 60/1/60 59/1/59
f 59/1/59 60/1/60 61/1/61
f 60/1/60 62/1/62 61/1/61
f 61/1/61 62/1/62 63/1/63
f 62/1/62 64/1/64 63/1/63
f 63/1/63 64/1/64 65/1/65
f 64/1/64 66/1/66 65/1/65
f 65/1/65 66/1/66 67/1/67
f 66/1/66 68/1/68 67/1/67
f 67/1/67 68/1/68 69/1/69
f 68/1/68 70/1/70 69/1/69
f 69/1/69 70/1/70 71/1/71
f 70/1/70 72/1/72 71/1/71
f 71/1/71 72/1/72 73/1/73
f 72/1/72 74/1/74 73/1/73
f 73/1/73 74/1/74 75/1/75
f 74/1/74 76/1/76 75/1/75
f 75/1/75 76/1/76 77/1/77
f 76/1/76 78/1/78 77/1/77
f 77/1/77 78/1/78 79/1/79
f 78/1/78 80/1/80 79/1/79
f 79/1/79 80/1/80 81/1/81
f 80/1/80 82/1/82 81/1/81
f 81/1/81 82/1/82 83/1/83
f 82/1/82 84/1/84 83/1/83
f 83/1/83 84/1/84 85/1/85
f 84/1/84 86/1/86 85/1/85
f 85/1/85 86/1/86 87/1/87
f 86/1/86 88/1/88 87/1/87
f 87/1/87 88/1/88 89/1/89
f 88/1/88 90/1/90 89/1/89
f 89/1/89 90/1/90 91/1/91
f 90/1/90 58/1/58 91/1/91
f 91/1/91 58/1/58 56/1/56
f 56/1/56 59/1/59 92/1/92
f 59/1/59 61/1/61 92/1/92
f 61/1/61 63/1/63 92/1/92
f 63/1/63 65/1/65 92/1/92
f 65/1/65 67/1/67 92/1/92
f 67/1/67 69/1/69 92/1/92
f 69/1/69 71/1/71 92/1/92
f 71/1/71 73/1/73 92/1/92
f 73/1/73 75/1/75 92/1/92
f 75/1/75 77/1/77 92/1/92
f 77/1/77 79/1/79 92/1/92
f 79/1/79 81/1/81 92/1/92
f 81/1/81 83/1/83 92/1/92
f 83/1/83 85/1/85 92/1/92
f 85/1/85 87/1/87 92/1/92
f 87/1/87 89/1/89 92/1/92
f 89/1/89 91/1/91 92/1/92
f 91/1/91 56/1/56 92/1/92
