mtllib group4.mtl
v -678.0227 53.31464 -186.508
vt 0 1
vn 0.0349348 0.04001162 0.0464769
v -675.6695 46.78414 -183.1034
vn 0.03499866 0.03161233 0.05250932
v -680.5735 49.82092 -182.2284
vn 0.03080154 0.03435042 0.05341148
v -673.8964 49.21281 -186.0783
vn 0.03844293 0.03632985 0.04673067
v -669.7715 42.29758 -185.0756
vn 0.04263371 0.02581887 0.04997224
v -669.0743 43.25245 -186.2452
vn 0.0446875 0.02863189 0.0465265
v -676.5701 43.36777 -180.7773
vn 0.03324943 0.02497627 0.05702748
v -681.8689 44.90636 -178.8823
vn 0.02870242 0.02638691 0.05883345
v -670.1255 40.95438 -184.161
vn 0.04159066 0.02186186 0.05266638
v -676.4893 39.37577 -179.3808
vn 0.03340626 0.01722211 0.05974022
v -681.7527 39.16374 -176.8733
vn 0.02889062 0.01708163 0.06208883
v -670.0938 39.38485 -183.612
vn 0.04168418 0.01723813 0.05428397
v -675.437 35.28964 -179.0821
vn 0.03545022 0.009285081 0.06032033
v -680.239 33.2857 -176.4437
vn 0.03134345 0.007556902 0.06278498
v -669.6801 37.77832 -183.4945
vn 0.04290297 0.01250535 0.05462988
v -673.5402 31.60221 -179.9174
vn 0.03913477 0.002122518 0.05869784
v -677.5103 27.98122 -177.6453
vn 0.03576506 -0.00103844 0.06083794
v -668.9343 36.32854 -183.8229
vn 0.04510003 0.008234384 0.05366241
v -671.0275 28.75826 -181.7859
vn 0.04401552 -0.003401664 0.05506846
v -673.8957 23.8901 -180.3331
vn 0.04162212 -0.007667667 0.05648255
v -667.9464 35.21039 -184.5576
vn 0.04801038 0.004940367 0.05149824
v -668.202 27.10079 -184.4622
vn 0.04950376 -0.006621178 0.04986993
v -669.8312 21.50578 -184.1831
vn 0.04820821 -0.01153121 0.05024412
v -666.8355 34.55873 -185.6098
vn 0.05128297 0.003020605 0.0483984
v -665.4046 26.82973 -187.6235
vn 0.05493754 -0.007147689 0.04372928
v -665.807 21.11585 -188.7307
vn 0.05472894 -0.01216304 0.04287512
v -665.7357 34.45216 -186.8527
vn 0.05452307 0.002706651 0.0447368
v -662.9727 27.97777 -190.8885
vn 0.05966145 -0.004917698 0.03738716
v -662.3086 22.76734 -193.4276
vn 0.06039781 -0.009486965 0.03526434
v -664.7795 34.90353 -188.1364
vn 0.0573399 0.004036372 0.04095505
v -661.1995 30.40644 -193.8635
vn 0.06310573 -0.0002001827 0.03160852
v -659.7578 26.26107 -197.7072
vn 0.06453108 -0.003825772 0.02832976
v -664.0823 35.85841 -189.3061
vn 0.05939369 0.006849379 0.0375093
v -660.2989 33.82281 -196.1895
vn 0.06485495 0.00643586 0.02709036
v -658.4623 31.17562 -201.0533
vn 0.06663021 0.00413773 0.0229078
v -663.7283 37.20161 -190.2206
vn 0.06043673 0.01080639 0.03481517
v -660.3796 37.8148 -197.5861
vn 0.06469811 0.01419003 0.02437763
v -658.5785 36.91824 -203.0623
vn 0.066442 0.01344303 0.01965242
v -663.7601 38.77113 -190.7697
vn 0.06034321 0.01543013 0.03319759
v -661.4319 41.90094 -197.8848
vn 0.06265416 0.02212707 0.02379752
v -660.0922 42.79628 -203.4919
vn 0.06398918 0.02296776 0.01895627
v -664.1738 40.37767 -190.8871
vn 0.05912442 0.02016291 0.03285167
v -663.3288 45.58837 -197.0495
vn 0.0589696 0.02928963 0.02542
v -662.8209 48.10076 -202.2903
vn 0.05956757 0.0315631 0.02090331
v -664.9196 41.82744 -190.5587
vn 0.05692736 0.02443387 0.03381914
v -665.8415 48.43232 -195.181
vn 0.05408885 0.03481381 0.02904939
v -666.4355 52.19188 -199.6024
vn 0.05371049 0.03819232 0.0252587
v -665.9075 42.94559 -189.8241
vn 0.05401701 0.02772789 0.03598331
v -668.667 50.08979 -192.5047
vn 0.04860061 0.03803332 0.03424792
v -670.5001 54.5762 -195.7525
vn 0.0471244 0.04205585 0.03149712
v -667.0183 43.59725 -188.7719
vn 0.05074442 0.02964765 0.03908315
v -671.4644 50.36085 -189.3434
vn 0.04316684 0.03855984 0.04038856
v -674.5242 54.96613 -191.2048
vn 0.04060367 0.04268769 0.03886612
v -668.1182 43.70382 -187.5289
vn 0.04750432 0.0299616 0.04274476
v -666.4552 39.22904 -186.7863
vn 0.05206431 0.01667053 0.04464161
o pikapika02a_0
g polygon_0
usemtl robo_pika1
f 3/1/3 2/1/2 1/1/1
f 1/1/1 2/1/2 4/1/4
f 2/1/2 5/1/5 4/1/4
f 4/1/4 5/1/5 6/1/6
f 8/1/8 7/1/7 3/1/3
f 3/1/3 7/1/7 2/1/2
f 7/1/7 9/1/9 2/1/2
f 2/1/2 9/1/9 5/1/5
f 11/1/11 10/1/10 8/1/8
f 8/1/8 10/1/10 7/1/7
f 10/1/10 12/1/12 7/1/7
f 7/1/7 12/1/12 9/1/9
f 14/1/14 13/1/13 11/1/11
f 11/1/11 13/1/13 10/1/10
f 13/1/13 15/1/15 10/1/10
f 10/1/10 15/1/15 12/1/12
f 17/1/17 16/1/16 14/1/14
f 14/1/14 16/1/16 13/1/13
f 16/1/16 18/1/18 13/1/13
f 13/1/13 18/1/18 15/1/15
f 20/1/20 19/1/19 17/1/17
f 17/1/17 19/1/19 16/1/16
f 19/1/19 21/1/21 16/1/16
f 16/1/16 21/1/21 18/1/18
f 23/1/23 22/1/22 20/1/20
f 20/1/20 22/1/22 19/1/19
f 22/1/22 24/1/24 19/1/19
f 19/1/19 24/1/24 21/1/21
f 26/1/26 25/1/25 23/1/23
f 23/1/23 25/1/25 22/1/22
f 25/1/25 27/1/27 22/1/22
f 22/1/22 27/1/27 24/1/24
f 29/1/29 28/1/28 26/1/26
f 26/1/26 28/1/28 25/1/25
f 28/1/28 30/1/30 25/1/25
f 25/1/25 30/1/30 27/1/27
f 32/1/32 31/1/31 29/1/29
f 29/1/29 31/1/31 28/1/28
f 31/1/31 33/1/33 28/1/28
f 28/1/28 33/1/33 30/1/30
f 35/1/35 34/1/34 32/1/32
f 32/1/32 34/1/34 31/1/31
f 34/1/34 36/1/36 31/1/31
f 31/1/31 36/1/36 33/1/33
f 38/1/38 37/1/37 35/1/35
f 35/1/35 37/1/37 34/1/34
f 37/1/37 39/1/39 34/1/34
f 34/1/34 39/1/39 36/1/36
f 41/1/41 40/1/40 38/1/38
f 38/1/38 40/1/40 37/1/37
f 40/1/40 42/1/42 37/1/37
f 37/1/37 42/1/42 39/1/39
f 44/1/44 43/1/43 41/1/41
f 41/1/41 43/1/43 40/1/40
f 43/1/43 45/1/45 40/1/40
f 40/1/40 45/1/45 42/1/42
f 47/1/47 46/1/46 44/1/44
f 44/1/44 46/1/46 43/1/43
f 46/1/46 48/1/48 43/1/43
f 43/1/43 48/1/48 45/1/45
f 50/1/50 49/1/49 47/1/47
f 47/1/47 49/1/49 46/1/46
f 49/1/49 51/1/51 46/1/46
f 46/1/46 51/1/51 48/1/48
f 53/1/53 52/1/52 50/1/50
f 50/1/50 52/1/52 49/1/49
f 52/1/52 54/1/54 49/1/49
f 49/1/49 54/1/54 51/1/51
f 1/1/1 4/1/4 53/1/53
f 53/1/53 4/1/4 52/1/52
f 4/1/4 6/1/6 52/1/52
f 52/1/52 6/1/6 54/1/54
f 6/1/6 5/1/5 55/1/55
f 5/1/5 9/1/9 55/1/55
f 9/1/9 12/1/12 55/1/55
f 12/1/12 15/1/15 55/1/55
f 15/1/15 18/1/18 55/1/55
f 18/1/18 21/1/21 55/1/55
f 21/1/21 24/1/24 55/1/55
f 24/1/24 27/1/27 55/1/55
f 27/1/27 30/1/30 55/1/55
f 30/1/30 33/1/33 55/1/55
f 33/1/33 36/1/36 55/1/55
f 36/1/36 39/1/39 55/1/55
f 39/1/39 42/1/42 55/1/55
f 42/1/42 45/1/45 55/1/55
f 45/1/45 48/1/48 55/1/55
f 48/1/48 51/1/51 55/1/55
f 51/1/51 54/1/54 55/1/55
f 54/1/54 6/1/6 55/1/55
v -666.5683 41.58175 -185.4843
vn 0.1278299 0.09586195 0.1351454
v -670.0479 43.59285 -184.471
vn 0.1006869 0.1025776 0.1520995
v -669.0714 44.5972 -185.9707
vn 0.1130955 0.1153387 0.1330438
v -666.9357 41.2039 -184.9201
vn 0.1192813 0.08707057 0.1482732
v -670.6232 42.06069 -183.2328
vn 0.09337689 0.08311027 0.1678323
v -667.1522 40.62748 -184.4543
vn 0.1142453 0.07365911 0.1591119
v -670.7279 40.18552 -182.4054
vn 0.09204721 0.05928476 0.1783448
v -667.1915 39.92202 -184.143
vn 0.1133293 0.05724521 0.1663542
v -670.3492 38.19352 -182.0887
vn 0.09685823 0.03397476 0.182369
v -667.0491 39.1726 -184.0238
vn 0.1166437 0.03980862 0.1691265
v -669.533 36.32495 -182.3208
vn 0.1072297 0.01023302 0.1794195
v -666.742 38.46962 -184.1112
vn 0.1237888 0.02345244 0.1670945
v -668.3776 34.80519 -183.0738
vn 0.1219105 -0.009076829 0.1698519
v -666.3073 37.89786 -184.3945
vn 0.1339027 0.01014947 0.1605033
v -667.0223 33.81754 -184.2569
vn 0.1391302 -0.02162575 0.1548205
v -665.7974 37.52629 -184.8395
vn 0.1457657 0.001504252 0.1501478
v -665.6307 33.48113 -185.7272
vn 0.1568116 -0.02590016 0.1361381
v -665.2739 37.39973 -185.3927
vn 0.1579468 -0.001440475 0.137277
v -664.3706 33.83653 -187.3076
vn 0.1728221 -0.02138447 0.116058
v -664.7998 37.53344 -185.9873
vn 0.1689768 0.001670466 0.1234435
v -663.394 34.84088 -188.8074
vn 0.1852307 -0.008623402 0.09700239
v -664.4324 37.91129 -186.5515
vn 0.1775254 0.01046184 0.1103156
v -662.8187 36.37304 -190.0456
vn 0.1925407 0.01084391 0.08126952
v -664.2159 38.48771 -187.0173
vn 0.1825614 0.02387329 0.09947693
v -662.714 38.2482 -190.873
vn 0.1938704 0.03466944 0.07075703
v -664.1766 39.19317 -187.3286
vn 0.1834774 0.0402872 0.09223465
v -663.0927 40.2402 -191.1897
vn 0.1890594 0.05997945 0.06673286
v -664.319 39.94259 -187.4478
vn 0.180163 0.0577238 0.08946232
v -663.9089 42.10877 -190.9576
vn 0.1786879 0.08372118 0.06968242
v -664.6262 40.64557 -187.3604
vn 0.1730179 0.07407998 0.09149434
v -665.0644 43.62854 -190.2046
vn 0.164007 0.103031 0.07924993
v -665.0609 41.21733 -187.0771
vn 0.1629039 0.08738295 0.0980856
v -666.4196 44.61618 -189.0215
vn 0.1467874 0.1155799 0.0942814
v -665.5707 41.58889 -186.6321
vn 0.151041 0.09602816 0.1084411
v -667.8112 44.9526 -187.5511
vn 0.129106 0.1198543 0.1129638
v -666.0942 41.71546 -186.0789
vn 0.1388599 0.09897289 0.1213118
v -665.4668 39.62899 -185.5465
vn 0.1531554 0.05032776 0.1334346
o pikapika02b_0
g polygon_0
usemtl robo_pika1
f 58/1/58 57/1/57 56/1/56
f 56/1/56 57/1/57 59/1/59
f 57/1/57 60/1/60 59/1/59
f 59/1/59 60/1/60 61/1/61
f 60/1/60 62/1/62 61/1/61
f 61/1/61 62/1/62 63/1/63
f 62/1/62 64/1/64 63/1/63
f 63/1/63 64/1/64 65/1/65
f 64/1/64 66/1/66 65/1/65
f 65/1/65 66/1/66 67/1/67
f 66/1/66 68/1/68 67/1/67
f 67/1/67 68/1/68 69/1/69
f 68/1/68 70/1/70 69/1/69
f 69/1/69 70/1/70 71/1/71
f 70/1/70 72/1/72 71/1/71
f 71/1/71 72/1/72 73/1/73
f 72/1/72 74/1/74 73/1/73
f 73/1/73 74/1/74 75/1/75
f 74/1/74 76/1/76 75/1/75
f 75/1/75 76/1/76 77/1/77
f 76/1/76 78/1/78 77/1/77
f 77/1/77 78/1/78 79/1/79
f 78/1/78 80/1/80 79/1/79
f 79/1/79 80/1/80 81/1/81
f 80/1/80 82/1/82 81/1/81
f 81/1/81 82/1/82 83/1/83
f 82/1/82 84/1/84 83/1/83
f 83/1/83 84/1/84 85/1/85
f 84/1/84 86/1/86 85/1/85
f 85/1/85 86/1/86 87/1/87
f 86/1/86 88/1/88 87/1/87
f 87/1/87 88/1/88 89/1/89
f 88/1/88 90/1/90 89/1/89
f 89/1/89 90/1/90 91/1/91
f 90/1/90 58/1/58 91/1/91
f 91/1/91 58/1/58 56/1/56
f 56/1/56 59/1/59 92/1/92
f 59/1/59 61/1/61 92/1/92
f 61/1/61 63/1/63 92/1/92
f 63/1/63 65/1/65 92/1/92
f 65/1/65 67/1/67 92/1/92
f 67/1/67 69/1/69 92/1/92
f 69/1/69 71/1/71 92/1/92
f 71/1/71 73/1/73 92/1/92
f 73/1/73 75/1/75 92/1/92
f 75/1/75 77/1/77 92/1/92
f 77/1/77 79/1/79 92/1/92
f 79/1/79 81/1/81 92/1/92
f 81/1/81 83/1/83 92/1/92
f 83/1/83 85/1/85 92/1/92
f 85/1/85 87/1/87 92/1/92
f 87/1/87 89/1/89 92/1/92
f 89/1/89 91/1/91 92/1/92
f 91/1/91 56/1/56 92/1/92
