mtllib group5.mtl
v -649.2838 53.22429 603.1455
vt 0 1
vn 0.05197138 0.03934641 -0.02706121
v -645.665 46.6457 601.3008
vn 0.05780144 0.03084366 -0.02625139
v -645.508 49.64557 606.3021
vn 0.05808956 0.03354747 -0.02194637
v -648.2898 49.13346 599.1065
vn 0.0527031 0.03567596 -0.03051363
v -646.7764 42.21968 595.1379
vn 0.05637883 0.02512831 -0.03422672
v -647.8083 43.19779 594.2752
vn 0.05333874 0.02800977 -0.03676825
v -643.5629 43.18547 602.5259
vn 0.06188472 0.02412242 -0.02387181
v -642.484 44.66792 608.0643
vn 0.06298965 0.02548173 -0.01909079
v -645.9498 40.85924 595.6196
vn 0.05881365 0.0211205 -0.03280779
v -642.2369 39.17014 602.6339
vn 0.06446046 0.01632292 -0.02366188
v -640.5765 38.89173 608.2198
vn 0.06608063 0.01612205 -0.01883887
v -645.4285 39.28054 595.6621
vn 0.06034954 0.01646974 -0.03268261
v -641.8469 35.084 601.612
vn 0.06521797 0.008385897 -0.02564694
v -640.0154 33.01369 606.7497
vn 0.06698968 0.006597325 -0.02122102
v -645.2751 37.67401 595.2603
vn 0.06080124 0.01173696 -0.03386629
v -642.44 31.41991 599.5833
vn 0.0640659 0.001268664 -0.02958756
v -640.8687 27.74278 603.8313
vn 0.06560715 -0.001943618 -0.0259499
v -645.5084 36.23341 594.4627
vn 0.06011428 0.007493026 -0.03621604
v -643.9446 28.61981 596.7925
vn 0.0611432 -0.004170325 -0.03500843
v -643.0331 23.71474 599.8167
vn 0.0620998 -0.00847061 -0.03245515
v -646.0999 35.1325 593.3654
vn 0.0583715 0.004249808 -0.03944845
v -646.1794 27.02144 593.5763
vn 0.05680239 -0.007275059 -0.04125573
v -646.2479 21.41543 595.1901
vn 0.05689066 -0.01219641 -0.03995213
v -646.9786 34.50407 592.101
vn 0.05578311 0.002398489 -0.04317366
v -648.8746 26.81757 590.3225
vn 0.05156703 -0.007671047 -0.04757593
v -650.1251 21.12217 590.5094
vn 0.05060805 -0.01267161 -0.04753661
v -648.0383 34.42392 590.8217
vn 0.05266132 0.002162363 -0.04694233
v -651.7053 28.03281 587.4236
vn 0.0460686 -0.005310534 -0.05320673
v -654.1972 22.87032 586.3394
vn 0.04400972 -0.009838904 -0.05429377
v -649.1512 34.90171 589.6819
vn 0.04938265 0.003569914 -0.05029992
v -654.3301 30.52057 585.2294
vn 0.04097027 -0.0004782396 -0.05746896
v -657.9729 26.44905 583.1828
vn 0.03789154 -0.004039972 -0.05940861
v -650.1832 35.87982 588.8192
vn 0.04634257 0.006451362 -0.05284145
v -656.4322 33.98079 584.0043
vn 0.03688699 0.006242995 -0.05984854
v -660.9969 31.42669 581.4205
vn 0.03299145 0.004025762 -0.0622642
v -651.0096 37.24026 588.3375
vn 0.04390775 0.01045917 -0.05426038
v -657.7582 37.99613 583.8962
vn 0.03431126 0.0140425 -0.06005846
v -662.9045 37.20288 581.265
vn 0.02990048 0.01338546 -0.06251611
v -651.531 38.81896 588.295
vn 0.04237186 0.01510994 -0.05438555
v -658.1483 42.08227 584.9182
vn 0.03355374 0.02197953 -0.0580734
v -663.4655 43.08092 582.7352
vn 0.02899143 0.02291018 -0.06013396
v -651.6843 40.4255 588.6968
vn 0.04192016 0.01984272 -0.05320188
v -657.5551 45.74635 586.9469
vn 0.03470581 0.02909676 -0.05413279
v -662.6123 48.35183 585.6535
vn 0.03037396 0.03145112 -0.05540508
v -651.4511 41.86609 589.4944
vn 0.04260713 0.02408665 -0.05085213
v -656.0505 48.54646 589.7377
vn 0.03762851 0.03453575 -0.04871191
v -660.4478 52.37987 589.6682
vn 0.0338813 0.03797812 -0.04889983
v -650.8596 42.967 590.5917
vn 0.04434991 0.02732987 -0.04761971
v -653.8157 50.14483 592.9539
vn 0.04196933 0.03764048 -0.04246461
v -657.233 54.67918 594.2948
vn 0.03909043 0.04170391 -0.04140284
v -649.981 43.59543 591.8563
vn 0.0469383 0.02918119 -0.0438945
v -651.1205 50.34869 596.2076
vn 0.04720467 0.03803647 -0.03614442
v -653.3558 54.97244 598.9754
vn 0.04537304 0.04217911 -0.03381837
v -648.9213 43.67558 593.1355
vn 0.05006009 0.02941731 -0.04012583
v -648.0048 39.19577 591.576
vn 0.05241846 0.01611503 -0.04443066
o pikapika03a_0
g polygon_0
usemtl robo_pika1
f 3/1/3 2/1/2 1/1/1
f 1/1/1 2/1/2 4/1/4
f 2/1/2 5/1/5 4/1/4
f 4/1/4 5/1/5 6/1/6
f 8/1/8 7/1/7 3/1/3
f 3/1/3 7/1/7 2/1/2
f 7/1/7 9/1/9 2/1/2
f 2/1/2 9/1/9 5/1/5
f 11/1/11 10/1/10 8/1/8
f 8/1/8 10/1/10 7/1/7
f 10/1/10 12/1/12 7/1/7
f 7/1/7 12/1/12 9/1/9
f 14/1/14 13/1/13 11/1/11
f 11/1/11 13/1/13 10/1/10
f 13/1/13 15/1/15 10/1/10
f 10/1/10 15/1/15 12/1/12
f 17/1/17 16/1/16 14/1/14
f 14/1/14 16/1/16 13/1/13
f 16/1/16 18/1/18 13/1/13
f 13/1/13 18/1/18 15/1/15
f 20/1/20 19/1/19 17/1/17
f 17/1/17 19/1/19 16/1/16
f 19/1/19 21/1/21 16/1/16
f 16/1/16 21/1/21 18/1/18
f 23/1/23 22/1/22 20/1/20
f 20/1/20 22/1/22 19/1/19
f 22/1/22 24/1/24 19/1/19
f 19/1/19 24/1/24 21/1/21
f 26/1/26 25/1/25 23/1/23
f 23/1/23 25/1/25 22/1/22
f 25/1/25 27/1/27 22/1/22
f 22/1/22 27/1/27 24/1/24
f 29/1/29 28/1/28 26/1/26
f 26/1/26 28/1/28 25/1/25
f 28/1/28 30/1/30 25/1/25
f 25/1/25 30/1/30 27/1/27
f 32/1/32 31/1/31 29/1/29
f 29/1/29 31/1/31 28/1/28
f 31/1/31 33/1/33 28/1/28
f 28/1/28 33/1/33 30/1/30
f 35/1/35 34/1/34 32/1/32
f 32/1/32 34/1/34 31/1/31
f 34/1/34 36/1/36 31/1/31
f 31/1/31 36/1/36 33/1/33
f 38/1/38 37/1/37 35/1/35
f 35/1/35 37/1/37 34/1/34
f 37/1/37 39/1/39 34/1/34
f 34/1/34 39/1/39 36/1/36
f 41/1/41 40/1/40 38/1/38
f 38/1/38 40/1/40 37/1/37
f 40/1/40 42/1/42 37/1/37
f 37/1/37 42/1/42 39/1/39
f 44/1/44 43/1/43 41/1/41
f 41/1/41 43/1/43 40/1/40
f 43/1/43 45/1/45 40/1/40
f 40/1/40 45/1/45 42/1/42
f 47/1/47 46/1/46 44/1/44
f 44/1/44 46/1/46 43/1/43
f 46/1/46 48/1/48 43/1/43
f 43/1/43 48/1/48 45/1/45
f 50/1/50 49/1/49 47/1/47
f 47/1/47 49/1/49 46/1/46
f 49/1/49 51/1/51 46/1/46
f 46/1/46 51/1/51 48/1/48
f 53/1/53 52/1/52 50/1/50
f 50/1/50 52/1/52 49/1/49
f 52/1/52 54/1/54 49/1/49
f 49/1/49 54/1/54 51/1/51
f 1/1/1 4/1/4 53/1/53
f 53/1/53 4/1/4 52/1/52
f 4/1/4 6/1/6 52/1/52
f 52/1/52 6/1/6 54/1/54
f 6/1/6 5/1/5 55/1/55
f 5/1/5 9/1/9 55/1/55
f 9/1/9 12/1/12 55/1/55
f 12/1/12 15/1/15 55/1/55
f 15/1/15 18/1/18 55/1/55
f 18/1/18 21/1/21 55/1/55
f 21/1/21 24/1/24 55/1/55
f 24/1/24 27/1/27 55/1/55
f 27/1/27 30/1/30 55/1/55
f 30/1/30 33/1/33 55/1/55
f 33/1/33 36/1/36 55/1/55
f 36/1/36 39/1/39 55/1/55
f 39/1/39 42/1/42 55/1/55
f 42/1/42 45/1/45 55/1/55
f 45/1/45 48/1/48 55/1/55
f 48/1/48 51/1/51 55/1/55
f 51/1/51 54/1/54 55/1/55
f 54/1/54 6/1/6 55/1/55
v -646.7433 41.38399 591.7125
vn 0.1458578 0.09586194 -0.1154567
v -646.0397 43.39509 595.2677
vn 0.1603606 0.1025776 -0.08692861
v -647.4478 44.39944 594.163
vn 0.1424693 0.1153387 -0.1009641
v -646.2135 41.00614 592.1281
vn 0.1581835 0.08707056 -0.1057874
v -644.8568 41.86293 595.9496
vn 0.1753901 0.08311026 -0.07826409
v -645.7685 40.42972 592.3846
vn 0.1685376 0.07365911 -0.09981822
v -644.0418 39.98776 596.1266
vn 0.185745 0.05928475 -0.07601558
v -645.4619 39.72426 592.4512
vn 0.1756713 0.05724521 -0.09826917
v -643.6931 37.99576 595.7772
vn 0.1901765 0.03397476 -0.08045428
v -645.3307 38.97484 592.3197
vn 0.1787242 0.03980862 -0.1013271
v -643.8525 36.12719 594.9437
vn 0.1881499 0.01023302 -0.09104481
v -645.3907 38.27185 592.0062
vn 0.1773281 0.02345243 -0.1086231
v -644.5011 34.60743 593.7266
vn 0.1799098 -0.009076832 -0.1065098
v -645.6346 37.7001 591.5482
vn 0.1716513 0.01014947 -0.1192773
v -645.5604 33.61978 592.2726
vn 0.16645 -0.02162575 -0.124984
v -646.0332 37.32853 591.0012
vn 0.1623785 0.001504249 -0.1320045
v -646.9028 33.28337 590.7571
vn 0.1493939 -0.02590016 -0.144239
v -646.5382 37.20197 590.4311
vn 0.1506283 -0.001440479 -0.1452698
v -648.3663 33.63877 589.363
vn 0.1307989 -0.02138447 -0.1619525
v -647.0888 37.33567 589.9066
vn 0.1378178 0.001670462 -0.157473
v -649.7744 34.64312 588.2584
vn 0.1129076 -0.008623405 -0.175988
v -647.6186 37.71352 589.491
vn 0.1254921 0.01046184 -0.1671423
v -650.9573 36.17527 587.5764
vn 0.09787813 0.01084391 -0.1846525
v -648.0636 38.28994 589.2345
vn 0.1151379 0.02387329 -0.1731115
v -651.7723 38.05044 587.3994
vn 0.08752318 0.03466944 -0.186901
v -648.3702 38.99541 589.1679
vn 0.1080042 0.0402872 -0.1746605
v -652.1211 40.04244 587.7488
vn 0.08309174 0.05997944 -0.1824623
v -648.5014 39.74483 589.2993
vn 0.1049513 0.0577238 -0.1716026
v -651.9615 41.91101 588.5823
vn 0.08511829 0.08372118 -0.1718717
v -648.4414 40.44781 589.6129
vn 0.1063474 0.07407998 -0.1643065
v -651.313 43.43077 589.7994
vn 0.09335842 0.103031 -0.1564067
v -648.1974 41.01957 590.0708
vn 0.1120242 0.08738295 -0.1536524
v -650.2537 44.41842 591.2535
vn 0.1068182 0.1155799 -0.1379326
v -647.7989 41.39113 590.6178
vn 0.121297 0.09602816 -0.1409251
v -648.9113 44.75484 592.7689
vn 0.1238742 0.1198543 -0.1186776
v -647.2938 41.5177 591.1879
vn 0.1330472 0.09897289 -0.1276599
v -646.7084 39.43123 590.6097
vn 0.1463796 0.05032776 -0.1408346
o pikapika03b_0
g polygon_0
usemtl robo_pika1
f 58/1/58 57/1/57 56/1/56
f 56/1/56 57/1/57 59/1/59
f 57/1/57 60/1/60 59/1/59
f 59/1/59 60/1/60 61/1/61
f 60/1/60 62/1/62 61/1/61
f 61/1/61 62/1/62 63/1/63
f 62/1/62 64/1/64 63/1/63
f 63/1/63 64/1/64 65/1/65
f 64/1/64 66/1/66 65/1/65
f 65/1/65 66/1/66 67/1/67
f 66/1/66 68/1/68 67/1/67
f 67/1/67 68/1/68 69/1/69
f 68/1/68 70/1/70 69/1/69
f 69/1/69 70/1/70 71/1/71
f 70/1/70 72/1/72 71/1/71
f 71/1/71 72/1/72 73/1/73
f 72/1/72 74/1/74 73/1/73
f 73/1/73 74/1/74 75/1/75
f 74/1/74 76/1/76 75/1/75
f 75/1/75 76/1/76 77/1/77
f 76/1/76 78/1/78 77/1/77
f 77/1/77 78/1/78 79/1/79
f 78/1/78 80/1/80 79/1/79
f 79/1/79 80/1/80 81/1/81
f 80/1/80 82/1/82 81/1/81
f 81/1/81 82/1/82 83/1/83
f 82/1/82 84/1/84 83/1/83
f 83/1/83 84/1/84 85/1/85
f 84/1/84 86/1/86 85/1/85
f 85/1/85 86/1/86 87/1/87
f 86/1/86 88/1/88 87/1/87
f 87/1/87 88/1/88 89/1/89
f 88/1/88 90/1/90 89/1/89
f 89/1/89 90/1/90 91/1/91
f 90/1/90 58/1/58 91/1/91
f 91/1/91 58/1/58 56/1/56
f 56/1/56 59/1/59 92/1/92
f 59/1/59 61/1/61 92/1/92
f 61/1/61 63/1/63 92/1/92
f 63/1/63 65/1/65 92/1/92
f 65/1/65 67/1/67 92/1/92
f 67/1/67 69/1/69 92/1/92
f 69/1/69 71/1/71 92/1/92
f 71/1/71 73/1/73 92/1/92
f 73/1/73 75/1/75 92/1/92
f 75/1/75 77/1/77 92/1/92
f 77/1/77 79/1/79 92/1/92
f 79/1/79 81/1/81 92/1/92
f 81/1/81 83/1/83 92/1/92
f 83/1/83 85/1/85 92/1/92
f 85/1/85 87/1/87 92/1/92
f 87/1/87 89/1/89 92/1/92
f 89/1/89 91/1/91 92/1/92
f 91/1/91 56/1/56 92/1/92
