mtllib group2.mtl
v 231.264 53.3154 191.7865
vt 0 1
vn -0.0350448 0.04125469 -0.04529221
v 229.0382 46.88655 188.1134
vn -0.034929 0.03309013 -0.05163797
v 233.9066 50.02237 187.4047
vn -0.03076284 0.03591868 -0.05239243
v 227.2012 49.17572 191.1594
vn -0.03849718 0.03753667 -0.04572129
v 223.1859 42.24669 189.8533
vn -0.04250494 0.02709882 -0.04940096
v 222.4637 43.14671 191.0509
vn -0.04463261 0.02975024 -0.04587291
v 230.0104 43.57373 185.6694
vn -0.03304056 0.02665521 -0.05638521
v 235.3051 45.25676 183.8889
vn -0.02849665 0.02819654 -0.0580893
v 223.5682 40.94419 188.8924
vn -0.04137887 0.02326174 -0.0522317
v 230.0006 39.63683 184.1222
vn -0.03305964 0.01900807 -0.05939044
v 235.291 39.5934 181.6633
vn -0.02851955 0.01901968 -0.06169569
v 223.5643 39.39633 188.2841
vn -0.04139025 0.01870182 -0.0540237
v 229.0099 35.55069 183.6585
vn -0.03498395 0.01107104 -0.06029117
v 233.8659 33.71536 180.9962
vn -0.03082879 0.009494959 -0.0627766
v 223.1748 37.7898 188.1018
vn -0.0425377 0.01396904 -0.0545608
v 227.1579 31.80817 184.3342
vn -0.03858138 0.00380146 -0.05897878
v 231.2017 28.33162 181.9682
vn -0.03514585 0.0007711935 -0.06120168
v 222.4466 36.31836 188.3675
vn -0.04468281 0.009634263 -0.05377823
v 224.6679 28.86067 186.0677
vn -0.04341803 -0.001923851 -0.05561155
v 227.6197 24.09154 184.4619
vn -0.04095 -0.006099395 -0.05716087
v 221.4677 35.1595 189.049
vn -0.04756686 0.006220315 -0.05177038
v 221.8402 27.06369 188.65
vn -0.04891053 -0.005414346 -0.05059561
v 223.552 21.50654 188.1766
vn -0.0475412 -0.01028812 -0.05114156
v 220.3559 34.45299 190.0643
vn -0.05084199 0.004138969 -0.04877942
v 219.016 26.63399 191.7696
vn -0.0543964 -0.006249006 -0.04453596
v 219.4893 20.8884 192.6643
vn -0.05412445 -0.01128974 -0.04386977
v 219.2455 34.28405 191.2908
vn -0.05411316 0.003641268 -0.04516611
v 216.5358 27.62339 195.0503
vn -0.05921397 -0.004327165 -0.0381635
v 215.9215 22.31168 197.3837
vn -0.0599057 -0.008983462 -0.03622258
v 218.2704 34.67305 192.5807
vn -0.05698583 0.004787243 -0.04136628
v 214.6989 29.91256 198.0963
vn -0.06278215 0.0001193674 -0.03224683
v 213.2789 25.60472 201.7655
vn -0.06418766 -0.003647459 -0.02912235
v 217.5482 35.57307 193.7783
vn -0.0591135 0.007438665 -0.03783822
v 213.7267 33.22538 200.5403
vn -0.06467059 0.006554279 -0.02749959
v 211.8804 30.37032 205.2812
vn -0.06645385 0.004074677 -0.02342549
v 217.1659 36.87556 194.7392
vn -0.06023956 0.01127574 -0.03500749
v 213.7365 37.16228 202.0874
vn -0.0646515 0.01420143 -0.02449436
v 211.8945 36.03368 207.5068
vn -0.06643095 0.01325154 -0.01981911
v 217.1698 38.42342 195.3475
vn -0.06022818 0.01583567 -0.0332155
v 214.7272 41.24842 202.5511
vn -0.06272719 0.02213846 -0.02359363
v 213.3196 41.91172 208.1739
vn -0.0641217 0.02277627 -0.01873819
v 217.5593 40.02996 195.5298
vn -0.05908073 0.02056844 -0.0326784
v 216.5792 44.99094 201.8755
vn -0.05912976 0.02940804 -0.02490602
v 215.9838 47.29546 207.202
vn -0.05980465 0.03150004 -0.02031312
v 218.2874 41.50139 195.2641
vn -0.05693562 0.02490322 -0.03346096
v 219.0692 47.93844 200.142
vn -0.05429311 0.03513335 -0.02827326
v 219.5658 51.53554 204.7082
vn -0.05400049 0.03837062 -0.02435392
v 219.2664 42.66026 194.5826
vn -0.05405157 0.02831717 -0.03546881
v 221.8968 49.73541 197.5597
vn -0.04880061 0.03862384 -0.03328919
v 223.6335 54.12054 200.9935
vn -0.04740929 0.04255934 -0.03037322
v 220.3782 43.36676 193.5673
vn -0.05077644 0.03039851 -0.03845977
v 224.7211 50.16512 194.44
vn -0.04331474 0.03945851 -0.03934883
v 227.6962 54.73868 196.5058
vn -0.04082604 0.04356097 -0.03764501
v 221.4886 43.53571 192.3408
vn -0.04750527 0.03089621 -0.04207308
v 219.8972 39.06957 191.4124
vn -0.05185562 0.01762439 -0.04451793
o pikapika00a_0
g polygon_0
usemtl robo_pika
f 3/1/3 2/1/2 1/1/1
f 1/1/1 2/1/2 4/1/4
f 2/1/2 5/1/5 4/1/4
f 4/1/4 5/1/5 6/1/6
f 8/1/8 7/1/7 3/1/3
f 3/1/3 7/1/7 2/1/2
f 7/1/7 9/1/9 2/1/2
f 2/1/2 9/1/9 5/1/5
f 11/1/11 10/1/10 8/1/8
f 8/1/8 10/1/10 7/1/7
f 10/1/10 12/1/12 7/1/7
f 7/1/7 12/1/12 9/1/9
f 14/1/14 13/1/13 11/1/11
f 11/1/11 13/1/13 10/1/10
f 13/1/13 15/1/15 10/1/10
f 10/1/10 15/1/15 12/1/12
f 17/1/17 16/1/16 14/1/14
f 14/1/14 16/1/16 13/1/13
f 16/1/16 18/1/18 13/1/13
f 13/1/13 18/1/18 15/1/15
f 20/1/20 19/1/19 17/1/17
f 17/1/17 19/1/19 16/1/16
f 19/1/19 21/1/21 16/1/16
f 16/1/16 21/1/21 18/1/18
f 23/1/23 22/1/22 20/1/20
f 20/1/20 22/1/22 19/1/19
f 22/1/22 24/1/24 19/1/19
f 19/1/19 24/1/24 21/1/21
f 26/1/26 25/1/25 23/1/23
f 23/1/23 25/1/25 22/1/22
f 25/1/25 27/1/27 22/1/22
f 22/1/22 27/1/27 24/1/24
f 29/1/29 28/1/28 26/1/26
f 26/1/26 28/1/28 25/1/25
f 28/1/28 30/1/30 25/1/25
f 25/1/25 30/1/30 27/1/27
f 32/1/32 31/1/31 29/1/29
f 29/1/29 31/1/31 28/1/28
f 31/1/31 33/1/33 28/1/28
f 28/1/28 33/1/33 30/1/30
f 35/1/35 34/1/34 32/1/32
f 32/1/32 34/1/34 31/1/31
f 34/1/34 36/1/36 31/1/31
f 31/1/31 36/1/36 33/1/33
f 38/1/38 37/1/37 35/1/35
f 35/1/35 37/1/37 34/1/34
f 37/1/37 39/1/39 34/1/34
f 34/1/34 39/1/39 36/1/36
f 41/1/41 40/1/40 38/1/38
f 38/1/38 40/1/40 37/1/37
f 40/1/40 42/1/42 37/1/37
f 37/1/37 42/1/42 39/1/39
f 44/1/44 43/1/43 41/1/41
f 41/1/41 43/1/43 40/1/40
f 43/1/43 45/1/45 40/1/40
f 40/1/40 45/1/45 42/1/42
f 47/1/47 46/1/46 44/1/44
f 44/1/44 46/1/46 43/1/43
f 46/1/46 48/1/48 43/1/43
f 43/1/43 48/1/48 45/1/45
f 50/1/50 49/1/49 47/1/47
f 47/1/47 49/1/49 46/1/46
f 49/1/49 51/1/51 46/1/46
f 46/1/46 51/1/51 48/1/48
f 53/1/53 52/1/52 50/1/50
f 50/1/50 52/1/52 49/1/49
f 52/1/52 54/1/54 49/1/49
f 49/1/49 54/1/54 51/1/51
f 1/1/1 4/1/4 53/1/53
f 53/1/53 4/1/4 52/1/52
f 4/1/4 6/1/6 52/1/52
f 52/1/52 6/1/6 54/1/54
f 6/1/6 5/1/5 55/1/55
f 5/1/5 9/1/9 55/1/55
f 9/1/9 12/1/12 55/1/55
f 12/1/12 15/1/15 55/1/55
f 15/1/15 18/1/18 55/1/55
f 18/1/18 21/1/21 55/1/55
f 21/1/21 24/1/24 55/1/55
f 24/1/24 27/1/27 55/1/55
f 27/1/27 30/1/30 55/1/55
f 30/1/30 33/1/33 55/1/55
f 33/1/33 36/1/36 55/1/55
f 36/1/36 39/1/39 55/1/55
f 39/1/39 42/1/42 55/1/55
f 42/1/42 45/1/45 55/1/55
f 45/1/45 48/1/48 55/1/55
f 48/1/48 51/1/51 55/1/55
f 51/1/51 54/1/54 55/1/55
f 54/1/54 6/1/6 55/1/55
v 220.3896 41.818 190.5997
vn -0.1263361 0.09639975 -0.1361636
v 223.9357 43.61488 189.4268
vn -0.09932032 0.1010953 -0.1539788
v 223.0445 44.72551 190.9046
vn -0.1106442 0.1152067 -0.1352018
v 220.7249 41.40017 190.0438
vn -0.1185348 0.08667812 -0.1490994
v 224.4074 42.00761 188.2411
vn -0.09332723 0.08067364 -0.1690445
v 220.9024 40.7955 189.5977
vn -0.1144061 0.07260922 -0.1594785
v 224.4026 40.09756 187.4905
vn -0.0933878 0.0564049 -0.1785818
v 220.9006 40.07691 189.3153
vn -0.1144478 0.05588996 -0.1660489
v 223.922 38.11511 187.2655
vn -0.09949473 0.03121622 -0.1814403
v 220.7198 39.33108 189.2307
vn -0.118655 0.03853694 -0.1680183
v 223.0235 36.29937 187.5933
vn -0.1109114 0.008145707 -0.1772753
v 220.3817 38.64798 189.354
vn -0.1265202 0.02264318 -0.1651489
v 221.8154 34.86934 188.4343
vn -0.1262609 -0.01002396 -0.1665892
v 219.9272 38.10998 189.6704
vn -0.1370948 0.01012571 -0.157787
v 220.4435 33.99751 189.6872
vn -0.1436917 -0.02110127 -0.1506708
v 219.4111 37.78198 190.1417
vn -0.1491032 0.002494318 -0.1468205
v 219.0733 33.78904 191.2007
vn -0.1611014 -0.02375013 -0.1314401
v 218.8956 37.70355 190.7111
vn -0.1610972 0.0006694631 -0.133572
v 217.87 34.26906 192.7924
vn -0.1763903 -0.01765104 -0.1112167
v 218.4429 37.88414 191.3099
vn -0.17163 0.004871251 -0.1196397
v 216.9788 35.37968 194.2702
vn -0.1877142 -0.003539668 -0.0924397
v 218.1076 38.30198 191.8659
vn -0.1794313 0.01459288 -0.1067038
v 216.5071 36.98695 195.4559
vn -0.1937073 0.01688197 -0.07737401
v 217.9302 38.90665 192.312
vn -0.18356 0.02866178 -0.09632476
v 216.5118 38.897 196.2065
vn -0.1936467 0.04115073 -0.06783672
v 217.932 39.62524 192.5944
vn -0.1835183 0.04538104 -0.08975431
v 216.9925 40.87945 196.4315
vn -0.1875398 0.06633942 -0.06497816
v 218.1128 40.37107 192.679
vn -0.1793111 0.06273406 -0.087785
v 217.891 42.69519 196.1037
vn -0.1761231 0.08940993 -0.06914314
v 218.4508 41.05417 192.5557
vn -0.1714459 0.07862782 -0.09065435
v 219.0991 44.12522 195.2627
vn -0.1607736 0.1075796 -0.07982929
v 218.9053 41.59217 192.2393
vn -0.1608714 0.09114529 -0.09801626
v 220.471 44.99705 194.0098
vn -0.1433428 0.1186569 -0.09574769
v 219.4214 41.92017 191.768
vn -0.1488629 0.09877668 -0.1089828
v 221.8412 45.20552 192.4963
vn -0.1259331 0.1213057 -0.1149784
v 219.937 41.9986 191.1986
vn -0.136869 0.1006015 -0.1222312
v 219.1982 39.92521 190.7676
vn -0.1537537 0.05225691 -0.1319972
o pikapika00b_0
g polygon_0
usemtl robo_pika0
f 58/1/58 57/1/57 56/1/56
f 56/1/56 57/1/57 59/1/59
f 57/1/57 60/1/60 59/1/59
f 59/1/59 60/1/60 61/1/61
f 60/1/60 62/1/62 61/1/61
f 61/1/61 62/1/62 63/1/63
f 62/1/62 64/1/64 63/1/63
f 63/1/63 64/1/64 65/1/65
f 64/1/64 66/1/66 65/1/65
f 65/1/65 66/1/66 67/1/67
f 66/1/66 68/1/68 67/1/67
f 67/1/67 68/1/68 69/1/69
f 68/1/68 70/1/70 69/1/69
f 69/1/69 70/1/70 71/1/71
f 70/1/70 72/1/72 71/1/71
f 71/1/71 72/1/72 73/1/73
f 72/1/72 74/1/74 73/1/73
f 73/1/73 74/1/74 75/1/75
f 74/1/74 76/1/76 75/1/75
f 75/1/75 76/1/76 77/1/77
f 76/1/76 78/1/78 77/1/77
f 77/1/77 78/1/78 79/1/79
f 78/1/78 80/1/80 79/1/79
f 79/1/79 80/1/80 81/1/81
f 80/1/80 82/1/82 81/1/81
f 81/1/81 82/1/82 83/1/83
f 82/1/82 84/1/84 83/1/83
f 83/1/83 84/1/84 85/1/85
f 84/1/84 86/1/86 85/1/85
f 85/1/85 86/1/86 87/1/87
f 86/1/86 88/1/88 87/1/87
f 87/1/87 88/1/88 89/1/89
f 88/1/88 90/1/90 89/1/89
f 89/1/89 90/1/90 91/1/91
f 90/1/90 58/1/58 91/1/91
f 91/1/91 58/1/58 56/1/56
f 56/1/56 59/1/59 92/1/92
f 59/1/59 61/1/61 92/1/92
f 61/1/61 63/1/63 92/1/92
f 63/1/63 65/1/65 92/1/92
f 65/1/65 67/1/67 92/1/92
f 67/1/67 69/1/69 92/1/92
f 69/1/69 71/1/71 92/1/92
f 71/1/71 73/1/73 92/1/92
f 73/1/73 75/1/75 92/1/92
f 75/1/75 77/1/77 92/1/92
f 77/1/77 79/1/79 92/1/92
f 79/1/79 81/1/81 92/1/92
f 81/1/81 83/1/83 92/1/92
f 83/1/83 85/1/85 92/1/92
f 85/1/85 87/1/87 92/1/92
f 87/1/87 89/1/89 92/1/92
f 89/1/89 91/1/91 92/1/92
f 91/1/91 56/1/56 92/1/92
